#!OML:ASF C:\Vicon Data\Big\jianyuan-13\jianyuan\Session 1\Capture.male.ASF
:FULLY-SPECIFIED
:DEGREES
14
root -7.876821 17.749363 -22.991879 10.037862 8.739297 3.807000
lowerback -13.245782 -3.827268 -3.834159 
upperback 2.204497 -4.533859 0.646437 
thorax 10.199157 -2.415872 1.857288 
lowerneck -2.332038 -1.494538 3.339657 
upperneck 1.668109 -2.018574 -3.939884 
head 0.837467 -1.034313 -1.826661 
rclavicle 0.000000 0.000000 
rhumerus -55.133086 -23.612039 -69.366234 
rradius 27.992196 
rwrist 33.719449 
rhand -15.629289 -16.478859 
rfingers 0.000000 
rthumb 10.557844 -46.193653 
lclavicle 0.000000 0.000000 
lhumerus -24.644947 1.033177 95.369158 
lradius 58.825711 
lwrist -18.969666 
lhand -19.248916 3.889804 
lfingers 0.000000 
lthumb 7.064886 33.751886 
rfemur -40.254085 2.142436 11.986024 
rtibia 27.669644 
rfoot -2.133081 -11.975077 
rtoes -32.376918 
lfemur 7.173283 -3.267843 -22.837100 
ltibia 26.609673 
lfoot -6.522586 2.200095 
ltoes -43.273589 
15
root -7.890396 17.759032 -22.919845 10.101457 8.589068 3.765758
lowerback -13.256488 -3.788509 -3.754403 
upperback 2.209011 -4.495733 0.653656 
thorax 10.201398 -2.393310 1.828524 
lowerneck -2.290573 -1.448129 3.361537 
upperneck 1.539708 -1.960290 -3.880159 
head 0.792564 -1.003857 -1.808529 
rclavicle 0.000000 0.000000 
rhumerus -54.936744 -23.524223 -69.452706 
rradius 27.848870 
rwrist 33.762015 
rhand -15.709140 -16.552242 
rfingers 0.000000 
rthumb 10.480804 -46.270979 
lclavicle 0.000000 0.000000 
lhumerus -24.826523 0.948127 95.331439 
lradius 58.897794 
lwrist -18.876343 
lhand -19.313733 3.983479 
lfingers 0.000000 
lthumb 7.002288 33.847637 
rfemur -40.301015 2.304326 12.125757 
rtibia 27.947614 
rfoot -2.017313 -11.786953 
rtoes -32.131489 
lfemur 6.934641 -2.926626 -22.673952 
ltibia 27.153747 
lfoot -5.798288 2.441700 
ltoes -44.148479 
16
root -7.903949 17.768344 -22.846344 10.130373 8.442343 3.740077
lowerback -13.221304 -3.764446 -3.723331 
upperback 2.207754 -4.473555 0.687173 
thorax 10.178170 -2.382082 1.854528 
lowerneck -2.271441 -1.407128 3.375726 
upperneck 1.443527 -1.906723 -3.936515 
head 0.760798 -0.977350 -1.827408 
rclavicle 0.000000 0.000000 
rhumerus -54.738612 -23.355402 -69.543834 
rradius 27.796848 
rwrist 33.674224 
rhand -15.635634 -16.543704 
rfingers 0.000000 
rthumb 10.551671 -46.258836 
lclavicle 0.000000 0.000000 
lhumerus -25.020222 0.892422 95.344698 
lradius 58.959875 
lwrist -18.608934 
lhand -19.416276 4.057293 
lfingers 0.000000 
lthumb 6.903320 33.924689 
rfemur -40.281211 2.434326 12.263986 
rtibia 28.220516 
rfoot -1.947823 -11.548165 
rtoes -31.844078 
lfemur 6.736262 -2.591887 -22.526306 
ltibia 27.696862 
lfoot -5.131254 2.683587 
ltoes -44.199283 
17
root -7.916136 17.777001 -22.773779 10.177162 8.367847 3.709919
lowerback -13.217603 -3.765390 -3.618315 
upperback 2.204873 -4.491690 0.677844 
thorax 10.164212 -2.384142 1.781996 
lowerneck -2.248424 -1.359111 3.467275 
upperneck 1.361200 -1.845373 -4.011357 
head 0.732486 -0.946689 -1.866177 
rclavicle 0.000000 0.000000 
rhumerus -54.605014 -23.324398 -69.572058 
rradius 27.699271 
rwrist 34.072297 
rhand -15.654048 -16.589257 
rfingers 0.000000 
rthumb 10.533875 -46.305277 
lclavicle 0.000000 0.000000 
lhumerus -25.200360 0.925888 95.252255 
lradius 58.976193 
lwrist -18.606172 
lhand -19.237309 3.897726 
lfingers 0.000000 
lthumb 7.076057 33.759373 
rfemur -40.253081 2.377683 12.469238 
rtibia 28.476897 
rfoot -1.842938 -11.158340 
rtoes -31.315818 
lfemur 6.481209 -2.279446 -22.351808 
ltibia 28.285734 
lfoot -4.423844 2.865087 
ltoes -44.164167 
18
root -7.927437 17.785687 -22.702061 10.208477 8.317595 3.672090
lowerback -13.199785 -3.771349 -3.544777 
upperback 2.209976 -4.515805 0.709567 
thorax 10.157684 -2.392638 1.770438 
lowerneck -2.278360 -1.323237 3.494123 
upperneck 1.334120 -1.798541 -4.083145 
head 0.730459 -0.924173 -1.893873 
rclavicle 0.000000 0.000000 
rhumerus -54.410719 -23.151786 -69.662921 
rradius 27.605143 
rwrist 34.201107 
rhand -15.814310 -16.638839 
rfingers 0.000000 
rthumb 10.379303 -46.362609 
lclavicle 0.000000 0.000000 
lhumerus -25.341537 1.012578 95.236976 
lradius 58.940590 
lwrist -18.823949 
lhand -19.053743 3.818291 
lfingers 0.000000 
lthumb 7.253260 33.673970 
rfemur -40.192207 2.374117 12.655368 
rtibia 28.711559 
rfoot -1.769125 -10.845420 
rtoes -30.718867 
lfemur 6.204227 -1.932258 -22.160699 
ltibia 28.918622 
lfoot -3.644404 3.026030 
ltoes -44.519679 
19
root -7.941092 17.794258 -22.630599 10.221659 8.236586 3.615999
lowerback -13.171599 -3.752505 -3.504282 
upperback 2.227863 -4.503585 0.761524 
thorax 10.161430 -2.386738 1.807592 
lowerneck -2.346299 -1.305386 3.511083 
upperneck 1.332502 -1.776241 -4.141154 
head 0.742133 -0.914235 -1.916379 
rclavicle 0.000000 0.000000 
rhumerus -54.191916 -23.021622 -69.733855 
rradius 27.540138 
rwrist 34.181561 
rhand -15.889694 -16.632726 
rfingers 0.000000 
rthumb 10.306592 -46.360182 
lclavicle 0.000000 0.000000 
lhumerus -25.462180 0.981132 95.298031 
lradius 58.887682 
lwrist -18.753895 
lhand -19.134705 3.878879 
lfingers 0.000000 
lthumb 7.175147 33.737177 
rfemur -40.112409 2.469276 12.844046 
rtibia 28.923400 
rfoot -1.746352 -10.672076 
rtoes -30.203553 
lfemur 5.925803 -1.523471 -21.932395 
ltibia 29.583635 
lfoot -2.876098 3.153825 
ltoes -44.496119 
20
root -7.956551 17.802401 -22.558398 10.235931 8.155859 3.565037
lowerback -13.152282 -3.722677 -3.456219 
upperback 2.242159 -4.473577 0.773135 
thorax 10.160883 -2.370290 1.800716 
lowerneck -2.395123 -1.305653 3.646514 
upperneck 1.331886 -1.780826 -4.225822 
head 0.748907 -0.917195 -1.968919 
rclavicle 0.000000 0.000000 
rhumerus -54.031069 -23.052118 -69.749536 
rradius 27.488940 
rwrist 34.282380 
rhand -15.811724 -16.557053 
rfingers 0.000000 
rthumb 10.381790 -46.280791 
lclavicle 0.000000 0.000000 
lhumerus -25.596686 0.879437 95.308993 
lradius 58.800881 
lwrist -18.517798 
lhand -19.286149 3.854392 
lfingers 0.000000 
lthumb 7.028974 33.717680 
rfemur -40.026532 2.529371 13.055418 
rtibia 29.118115 
rfoot -1.737199 -10.563591 
rtoes -29.649435 
lfemur 5.629323 -1.120978 -21.698152 
ltibia 30.281820 
lfoot -2.131234 3.269494 
ltoes -44.101301 
21
root -7.970717 17.810364 -22.483969 10.250794 8.104264 3.537623
lowerback -13.142055 -3.710668 -3.407046 
upperback 2.245561 -4.465177 0.763581 
thorax 10.153054 -2.363068 1.765346 
lowerneck -2.420008 -1.305960 3.778195 
upperneck 1.350081 -1.784534 -4.293935 
head 0.757625 -0.919338 -2.015326 
rclavicle 0.000000 0.000000 
rhumerus -53.864261 -22.982071 -69.860920 
rradius 27.429000 
rwrist 34.259068 
rhand -15.798497 -16.504833 
rfingers 0.000000 
rthumb 10.394565 -46.227885 
lclavicle 0.000000 0.000000 
lhumerus -25.742167 0.896274 95.248665 
lradius 58.647584 
lwrist -18.698854 
lhand -19.235449 3.740415 
lfingers 0.000000 
lthumb 7.077887 33.602069 
rfemur -39.921679 2.556221 13.244102 
rtibia 29.309397 
rfoot -1.733448 -10.507611 
rtoes -28.871294 
lfemur 5.314241 -0.762022 -21.508238 
ltibia 31.017891 
lfoot -1.372405 3.448413 
ltoes -44.382039 
22
root -7.985650 17.818451 -22.407672 10.290158 8.043792 3.478037
lowerback -13.190075 -3.697333 -3.294807 
upperback 2.253796 -4.462788 0.747639 
thorax 10.178989 -2.354862 1.682894 
lowerneck -2.428725 -1.261861 3.724923 
upperneck 1.346174 -1.726695 -4.156069 
head 0.761397 -0.889293 -1.960201 
rclavicle 0.000000 0.000000 
rhumerus -53.667873 -22.963643 -69.965921 
rradius 27.293281 
rwrist 34.547896 
rhand -15.905794 -16.601934 
rfingers 0.000000 
rthumb 10.291014 -46.330161 
lclavicle 0.000000 0.000000 
lhumerus -25.880794 0.875514 95.137170 
lradius 58.501992 
lwrist -18.867422 
lhand -19.321136 3.844433 
lfingers 0.000000 
lthumb 6.995114 33.708686 
rfemur -39.845806 2.607473 13.464870 
rtibia 29.510560 
rfoot -1.751612 -10.469677 
rtoes -27.998783 
lfemur 4.959976 -0.369286 -21.282637 
ltibia 31.793922 
lfoot -0.663962 3.641225 
ltoes -45.248359 
23
root -7.999871 17.827892 -22.331990 10.356290 8.064680 3.431613
lowerback -13.187574 -3.713804 -3.260459 
upperback 2.194795 -4.496566 0.807008 
thorax 10.116684 -2.370046 1.722219 
lowerneck -2.388444 -1.238247 3.661464 
upperneck 1.361147 -1.691487 -4.158082 
head 0.760979 -0.871682 -1.948746 
rclavicle 0.000000 0.000000 
rhumerus -53.555302 -22.869386 -69.871564 
rradius 27.212291 
rwrist 34.746426 
rhand -15.920704 -16.507666 
rfingers 0.000000 
rthumb 10.276641 -46.236544 
lclavicle 0.000000 0.000000 
lhumerus -26.066639 0.866642 95.182788 
lradius 58.351898 
lwrist -18.563818 
lhand -19.970336 4.203559 
lfingers 0.000000 
lthumb 6.368413 34.087824 
rfemur -39.783924 2.641474 13.643126 
rtibia 29.719191 
rfoot -1.834544 -10.462869 
rtoes -27.295773 
lfemur 4.534967 -0.028502 -21.058544 
ltibia 32.616088 
lfoot 0.125083 3.811514 
ltoes -46.939992 
24
root -8.015393 17.837162 -22.260431 10.422902 7.990132 3.389861
lowerback -13.206490 -3.698429 -3.209797 
upperback 2.174088 -4.484196 0.810587 
thorax 10.099918 -2.360876 1.700224 
lowerneck -2.348803 -1.192656 3.686551 
upperneck 1.317504 -1.632157 -4.106438 
head 0.743057 -0.840903 -1.934841 
rclavicle 0.000000 0.000000 
rhumerus -53.368126 -22.768856 -70.046800 
rradius 27.247417 
rwrist 34.679144 
rhand -15.933224 -16.749290 
rfingers 0.000000 
rthumb 10.264523 -46.478850 
lclavicle 0.000000 0.000000 
lhumerus -26.215352 0.830022 95.147523 
lradius 58.215397 
lwrist -18.507263 
lhand -20.213941 4.321986 
lfingers 0.000000 
lthumb 6.133315 34.213206 
rfemur -39.754070 2.811613 13.784262 
rtibia 29.918153 
rfoot -1.908070 -10.503396 
rtoes -26.607432 
lfemur 4.086474 0.332700 -20.859083 
ltibia 33.492487 
lfoot 0.722660 4.035584 
ltoes -47.699552 
25
root -8.029931 17.849385 -22.188933 10.471901 8.043692 3.346859
lowerback -13.171489 -3.717115 -3.181675 
upperback 2.144263 -4.519337 0.854231 
thorax 10.050285 -2.377109 1.726633 
lowerneck -2.335821 -1.176257 3.624381 
upperneck 1.294985 -1.610138 -4.009618 
head 0.735408 -0.829054 -1.891598 
rclavicle 0.000000 0.000000 
rhumerus -53.233859 -22.804877 -69.979389 
rradius 27.180376 
rwrist 34.997587 
rhand -15.962022 -16.633821 
rfingers 0.000000 
rthumb 10.236743 -46.364677 
lclavicle 0.000000 0.000000 
lhumerus -26.390454 0.885119 95.128448 
lradius 58.039184 
lwrist -18.869596 
lhand -19.956057 4.259927 
lfingers 0.000000 
lthumb 6.382199 34.143758 
rfemur -39.672954 2.924748 13.918250 
rtibia 30.101959 
rfoot -1.985491 -10.592475 
rtoes -26.071015 
lfemur 3.592291 0.642916 -20.606478 
ltibia 34.431611 
lfoot 1.522597 4.215065 
ltoes -47.865950 
